# xmcd CD database file
#
# Track frame offsets:
#	150
#	30677
#	50952
#	78402
#	103285
#	126815
#	160260
#	191270
#	217622
#	249155
#	281690
#
# Disc length: 4178 seconds
#
# Revision: 0
# Processed by: cddbd v1.4PL0 Copyright (c) Steve Scherf et al.
# Submitted via: CDex 1.50Beta3
#
DISCID=9310500b
DTITLE=Rodney Whitaker - Children of The Light
DYEAR=1996
DGENRE=Jazz
TTITLE0=Mandela's Muse
TTITLE1=Broadway
TTITLE2=One Silent Moment
TTITLE3=On Green Dolphin Street
TTITLE4=Woman Child
TTITLE5=Mood Swings
TTITLE6=(Queen) Roz
TTITLE7=Clildren of The Light
TTITLE8=Langman
TTITLE9=El Morro
TTITLE10=Cultural Warrior
EXTD=YEAR: 1996
EXTT0=
EXTT1=
EXTT2=
EXTT3=
EXTT4=
EXTT5=
EXTT6=
EXTT7=
EXTT8=
EXTT9=
EXTT10=
PLAYORDER=
